<svg viewBox="0 0 100 100" xmlns="http://www.w3.org/2000/svg">
  <rect width="100" height="100" fill="#e8f4fd" rx="8"/>
  <!-- body segments -->
  <path d="M25,50 Q35,35 55,32 Q70,32 78,42 Q82,55 75,65 Q65,78 48,78 Q30,78 22,65 Z" fill="#e53935" stroke="#b71c1c" strokeWidth="2.5"/>
  <!-- segment lines -->
  <path d="M30,55 Q50,48 72,55" fill="none" stroke="#b71c1c" strokeWidth="1.5"/>
  <path d="M27,63 Q48,57 70,63" fill="none" stroke="#b71c1c" strokeWidth="1.5"/>
  <!-- head -->
  <ellipse cx="68" cy="40" rx="14" ry="12" fill="#e53935" stroke="#b71c1c" strokeWidth="2"/>
  <!-- eye -->
  <circle cx="75" cy="36" r="4" fill="#212121"/>
  <circle cx="76" cy="35" r="1.5" fill="white"/>
  <!-- antennae -->
  <line x1="75" y1="30" x2="86" y2="18" stroke="#e53935" strokeWidth="2" strokeLinecap="round"/>
  <line x1="77" y1="28" x2="90" y2="20" stroke="#e53935" strokeWidth="1.5" strokeLinecap="round"/>
  <!-- tail fan -->
  <path d="M25,65 Q14,72 10,80" fill="none" stroke="#e53935" strokeWidth="2.5" strokeLinecap="round"/>
  <path d="M25,65 Q18,76 20,86" fill="none" stroke="#c62828" strokeWidth="2.5" strokeLinecap="round"/>
  <path d="M25,65 Q22,78 28,86" fill="none" stroke="#e53935" strokeWidth="2.5" strokeLinecap="round"/>
</svg>
