<svg viewBox="0 0 100 100" xmlns="http://www.w3.org/2000/svg">
  <rect width="100" height="100" fill="#e8f5e9" rx="8"/>
  <!-- sky -->
  <rect width="100" height="55" fill="#87ceeb" rx="8"/>
  <!-- ground -->
  <rect x="0" y="55" width="100" height="45" fill="#5cb85c" rx="4"/>
  <!-- clouds -->
  <ellipse cx="25" cy="22" rx="16" ry="10" fill="white"/>
  <ellipse cx="16" cy="27" rx="11" ry="8" fill="white"/>
  <ellipse cx="35" cy="27" rx="10" ry="8" fill="white"/>
  <ellipse cx="68" cy="18" rx="18" ry="10" fill="white"/>
  <ellipse cx="57" cy="23" rx="12" ry="8" fill="white"/>
  <ellipse cx="80" cy="23" rx="11" ry="8" fill="white"/>
  <!-- sun -->
  <circle cx="86" cy="16" r="10" fill="#fbbf24" stroke="#f59e0b" strokeWidth="1.5"/>
  <!-- grass tufts -->
  <path d="M10,55 Q12,46 14,55" fill="none" stroke="#3d7a3d" strokeWidth="2" strokeLinecap="round"/>
  <path d="M28,55 Q30,47 32,55" fill="none" stroke="#3d7a3d" strokeWidth="2" strokeLinecap="round"/>
  <path d="M52,55 Q54,46 56,55" fill="none" stroke="#3d7a3d" strokeWidth="2" strokeLinecap="round"/>
  <path d="M72,55 Q74,47 76,55" fill="none" stroke="#3d7a3d" strokeWidth="2" strokeLinecap="round"/>
  <path d="M86,55 Q88,47 90,55" fill="none" stroke="#3d7a3d" strokeWidth="2" strokeLinecap="round"/>
</svg>
