<svg xmlns="http://www.w3.org/2000/svg" viewBox="0 0 100 100"><path d="M 50 25 C 30 25 20 55 42 85 C 46 90 54 90 58 85 C 80 55 70 25 50 25 Z" fill="#FF5964" stroke="#2E2E2E" stroke-width="3.5" stroke-linejoin="round"/><path d="M 50 27 C 40 14 22 22 30 35 C 40 35 45 32 45 32 C 48 22 52 22 55 32 C 55 32 60 35 70 35 C 78 22 60 14 50 27 Z" fill="#4CAF50" stroke="#2E2E2E" stroke-width="3.5"/><circle cx="44" cy="48" r="1.5" fill="#FFF"/><circle cx="56" cy="48" r="1.5" fill="#FFF"/><circle cx="50" cy="60" r="1.5" fill="#FFF"/></svg>