<svg viewBox="0 0 100 100" xmlns="http://www.w3.org/2000/svg">
  <rect width="100" height="100" fill="#fff7ed" rx="8"/>
  <rect x="46" y="12" width="8" height="28" fill="#8b6340" rx="3"/>
  <path d="M50,40 Q32,36 24,48 Q18,58 26,66 Q34,74 50,74 Q66,74 74,66 Q82,58 76,48 Q68,36 50,40Z" fill="#f97316" stroke="#ea6700" strokeWidth="2.5"/>
  <path d="M50,40 Q44,32 40,34 Q36,38 40,42" fill="#4caf50" stroke="#388e3c" strokeWidth="1.5"/>
  <path d="M50,40 Q56,32 60,34 Q64,38 60,42" fill="#4caf50" stroke="#388e3c" strokeWidth="1.5"/>
  <path d="M36,54 Q50,46 64,54" fill="none" stroke="#ea6700" strokeWidth="1.5"/>
  <path d="M30,62 Q50,54 70,62" fill="none" stroke="#ea6700" strokeWidth="1.5"/>
  <ellipse cx="42" cy="48" rx="4" ry="5" fill="#fb923c" opacity="0.5"/>
</svg>
