<svg viewBox="0 0 100 100" xmlns="http://www.w3.org/2000/svg">
  <rect width="100" height="100" fill="#e8f4fd" rx="8"/>
  <!-- kelp fronds -->
  <path d="M20,85 Q18,60 28,40 Q36,24 50,20 Q64,24 72,40 Q82,60 80,85" fill="none" stroke="#2d6a2d" strokeWidth="10" strokeLinecap="round"/>
  <path d="M30,85 Q25,65 32,48 Q40,34 50,30 Q60,34 68,48 Q75,65 70,85" fill="#3d8a3d" stroke="#2d6a2d" strokeWidth="7" strokeLinecap="round"/>
  <!-- texture lines on kelp -->
  <path d="M35,70 Q50,64 65,70" fill="none" stroke="#2d6a2d" strokeWidth="1.5"/>
  <path d="M33,78 Q50,72 67,78" fill="none" stroke="#2d6a2d" strokeWidth="1.5"/>
  <path d="M38,62 Q50,56 62,62" fill="none" stroke="#2d6a2d" strokeWidth="1.5"/>
  <!-- water surface -->
  <path d="M10,88 Q25,84 40,88 Q55,92 70,88 Q85,84 95,88" fill="none" stroke="#4a9ec0" strokeWidth="2.5" strokeLinecap="round"/>
</svg>
