<svg viewBox="0 0 100 100" xmlns="http://www.w3.org/2000/svg">
  <rect width="100" height="100" fill="#f0f8ff" rx="8"/>
  <!-- diary book -->
  <rect x="18" y="14" width="58" height="74" fill="#3b82f6" rx="5" stroke="#2563eb" strokeWidth="2.5"/>
  <!-- spine -->
  <rect x="18" y="14" width="10" height="74" fill="#1d4ed8" rx="5"/>
  <!-- pages -->
  <rect x="28" y="14" width="48" height="74" fill="#fefce8" rx="3"/>
  <!-- lines on page -->
  <line x1="33" y1="34" x2="70" y2="34" stroke="#d4c8a0" strokeWidth="1.5"/>
  <line x1="33" y1="44" x2="70" y2="44" stroke="#d4c8a0" strokeWidth="1.5"/>
  <line x1="33" y1="54" x2="70" y2="54" stroke="#d4c8a0" strokeWidth="1.5"/>
  <line x1="33" y1="64" x2="70" y2="64" stroke="#d4c8a0" strokeWidth="1.5"/>
  <!-- pencil -->
  <rect x="64" y="22" width="6" height="36" fill="#fbbf24" stroke="#f59e0b" strokeWidth="1.5" transform="rotate(25 67 40)"/>
  <path d="M72,52 L75,60 L68,55 Z" fill="#f59e0b" transform="rotate(25 67 40)"/>
  <!-- heart doodle -->
  <path d="M38,42 Q38,37 43,37 Q48,37 48,42 Q48,47 43,52 Q38,47 38,42Z" fill="#f472b6" opacity="0.6"/>
</svg>
