<svg viewBox="0 0 100 100" xmlns="http://www.w3.org/2000/svg">
  <rect width="100" height="100" fill="#fff0f8" rx="8"/>
  <!-- apron -->
  <path d="M32,58 Q50,48 68,58 Q72,76 50,84 Q28,76 32,58Z" fill="white" stroke="#ddd" strokeWidth="2"/>
  <!-- body -->
  <ellipse cx="50" cy="68" rx="18" ry="20" fill="#f472b6" stroke="#ec4899" strokeWidth="2.5"/>
  <!-- head -->
  <circle cx="50" cy="36" r="18" fill="#fcd5b0" stroke="#e8b88a" strokeWidth="2"/>
  <!-- hair -->
  <path d="M34,32 Q36,20 50,18 Q64,20 66,32" fill="#3a2a1a" stroke="#2a1a0a" strokeWidth="1.5"/>
  <path d="M33,33 Q30,28 28,34" fill="#3a2a1a"/>
  <path d="M67,33 Q70,28 72,34" fill="#3a2a1a"/>
  <!-- eyes smile -->
  <path d="M40,34 Q44,31 48,34" fill="none" stroke="#3a2010" strokeWidth="2" strokeLinecap="round"/>
  <path d="M52,34 Q56,31 60,34" fill="none" stroke="#3a2010" strokeWidth="2" strokeLinecap="round"/>
  <path d="M43,42 Q50,46 57,42" fill="none" stroke="#c87040" strokeWidth="1.5" strokeLinecap="round"/>
  <!-- arms -->
  <path d="M32,56 Q18,52 14,62" fill="none" stroke="#f472b6" strokeWidth="7" strokeLinecap="round"/>
  <circle cx="14" cy="62" r="7" fill="#fcd5b0" stroke="#e8b88a" strokeWidth="2"/>
  <path d="M68,56 Q82,52 86,62" fill="none" stroke="#f472b6" strokeWidth="7" strokeLinecap="round"/>
  <circle cx="86" cy="62" r="7" fill="#fcd5b0" stroke="#e8b88a" strokeWidth="2"/>
</svg>
