<svg viewBox="0 0 100 100" xmlns="http://www.w3.org/2000/svg">
  <rect width="100" height="100" fill="#fff0fc" rx="8"/>
  <ellipse cx="50" cy="72" rx="20" ry="22" fill="#ec4899" stroke="#db2777" strokeWidth="2.5"/>
  <circle cx="50" cy="36" r="18" fill="#fcd5b0" stroke="#e8b88a" strokeWidth="2"/>
  <path d="M34,32 Q36,18 50,16 Q64,18 66,32" fill="#3a2a1a" stroke="#2a1a0a" strokeWidth="1.5"/>
  <path d="M32,34 Q28,40 30,48" fill="#3a2a1a" stroke="#2a1a0a" strokeWidth="2" strokeLinecap="round"/>
  <path d="M68,34 Q72,40 70,48" fill="#3a2a1a" stroke="#2a1a0a" strokeWidth="2" strokeLinecap="round"/>
  <path d="M40,33 Q44,30 48,33" fill="none" stroke="#3a2010" strokeWidth="2" strokeLinecap="round"/>
  <path d="M52,33 Q56,30 60,33" fill="none" stroke="#3a2010" strokeWidth="2" strokeLinecap="round"/>
  <path d="M43,42 Q50,46 57,42" fill="none" stroke="#c87040" strokeWidth="1.5" strokeLinecap="round"/>
  <path d="M30,62 Q16,58 12,66" fill="none" stroke="#ec4899" strokeWidth="7" strokeLinecap="round"/>
  <circle cx="12" cy="66" r="7" fill="#fcd5b0" stroke="#e8b88a" strokeWidth="2"/>
  <path d="M70,62 Q84,60 88,68" fill="none" stroke="#ec4899" strokeWidth="7" strokeLinecap="round"/>
</svg>
