<svg viewBox="0 0 100 100" xmlns="http://www.w3.org/2000/svg">
  <rect width="100" height="100" fill="#f0f4ff" rx="8"/>
  <!-- body / suit -->
  <ellipse cx="50" cy="70" rx="22" ry="24" fill="#1e3a5f" stroke="#162d4a" strokeWidth="2.5"/>
  <!-- tie -->
  <path d="M46,52 Q50,46 54,52 L52,74 Q50,78 48,74 Z" fill="#dc2626" stroke="#b91c1c" strokeWidth="1.5"/>
  <!-- head -->
  <circle cx="50" cy="34" r="18" fill="#fcd5b0" stroke="#e8b88a" strokeWidth="2"/>
  <!-- short hair -->
  <path d="M34,30 Q36,18 50,16 Q64,18 66,30" fill="#2a1a0a" stroke="#1a0a00" strokeWidth="1.5"/>
  <!-- eyes smile -->
  <path d="M40,32 Q44,29 48,32" fill="none" stroke="#3a2010" strokeWidth="2" strokeLinecap="round"/>
  <path d="M52,32 Q56,29 60,32" fill="none" stroke="#3a2010" strokeWidth="2" strokeLinecap="round"/>
  <path d="M43,40 Q50,44 57,40" fill="none" stroke="#c87040" strokeWidth="1.5" strokeLinecap="round"/>
  <!-- wave arm -->
  <path d="M28,60 Q14,54 10,62" fill="none" stroke="#1e3a5f" strokeWidth="7" strokeLinecap="round"/>
  <circle cx="10" cy="62" r="7" fill="#fcd5b0" stroke="#e8b88a" strokeWidth="2"/>
  <!-- briefcase arm -->
  <path d="M72,60 Q84,58 88,66" fill="none" stroke="#1e3a5f" strokeWidth="7" strokeLinecap="round"/>
  <rect x="82" y="64" width="16" height="14" fill="#5a3820" rx="3" stroke="#3a2000" strokeWidth="1.5"/>
  <path d="M86,64 Q86,58 90,58 Q94,58 94,64" fill="none" stroke="#5a3820" strokeWidth="2"/>
</svg>
